<?xml version="1.0" encoding="utf-8"?>
<!-- Generator: Adobe Illustrator 22.1.0, SVG Export Plug-In . SVG Version: 6.00 Build 0)  -->
<svg version="1.1" id="Layer_1" xmlns="http://www.w3.org/2000/svg" xmlns:xlink="http://www.w3.org/1999/xlink" x="0px" y="0px"
	 viewBox="0 0 295 162.2" style="enable-background:new 0 0 295 162.2;" xml:space="preserve">
<style type="text/css">
	.st0{fill:url(#SVGID_1_);}
</style>
<g>
	<path d="M155,85.5c-5.6,5.9-9.4,8.1-15.2,10.1c1.2,2.4,2.8,5.1,4.8,7c7.3,0.2,12-3.1,16.1-6.7C159.7,92.4,156.9,87.1,155,85.5z"/>
	
		<linearGradient id="SVGID_1_" gradientUnits="userSpaceOnUse" x1="-65.5854" y1="85.7971" x2="-49.6257" y2="85.7971" gradientTransform="matrix(0.9999 -1.521903e-02 1.521903e-02 0.9999 200.1381 -5.3103)">
		<stop  offset="0" style="stop-color:#EE8C49"/>
		<stop  offset="6.010610e-02" style="stop-color:#EB8243"/>
		<stop  offset="0.2522" style="stop-color:#E46535"/>
		<stop  offset="0.4443" style="stop-color:#DF4C2D"/>
		<stop  offset="0.6341" style="stop-color:#DC3628"/>
		<stop  offset="0.8206" style="stop-color:#DA2627"/>
		<stop  offset="1" style="stop-color:#DA1F26"/>
	</linearGradient>
	<path class="st0" d="M136.3,73c-0.7,4.6-0.7,11.6,1,18c7-2.9,12.2-6.8,14.6-10c-5.4-6.8-10.5-8-15.2-9.1
		C136.5,72.2,136.3,72.7,136.3,73z"/>
	<path d="M144.3,59.6c-2.3,1.9-4.3,4.6-5.6,7.4c7.9,1.4,11.5,3.4,16.6,8.2c2.2-2.3,4.3-5.5,5.6-8.4c-1.3-1.6-3.7-3.6-5.4-4.6
		C151.9,60.2,148,59.5,144.3,59.6z"/>
	<path d="M135.8,96.2c-0.6,0-1.1-0.1-1.6-0.2c-2.4-0.4-4.7-1.4-6.7-2.7c1.9,2.7,4.4,5,7.4,6.7c2,1.1,4.1,1.8,6.2,2.2
		C139,100.5,137.2,98.4,135.8,96.2z"/>
	<path d="M132,72.1c-2.2,0.3-5.3,1.2-7.2,2.3c-1.6,4.9-1.4,10.1,0.4,14.7c2.4,1.2,5.1,1.9,7.9,1.9C130.5,84.8,130.8,77.8,132,72.1z"
		/>
	<path d="M132.8,67.3c0.4-0.9,3.4-5.2,4.8-6.3c-4.5,1.7-8.5,4.9-11,9.4C128.3,69,130.6,67.9,132.8,67.3z"/>
</g>
<g>
	<path d="M179.8,81.1c0,0.4,0,0.8,0,1.3c0,1.2-0.1,2.4-0.3,3.5c-0.6,2.5-2.2,4.7-5,4.7c-4.5,0-5.8-4.9-5.8-8.5
		c0-3.8,1.3-8.6,5.9-8.5c2.5,0,4.2,1.6,4.8,4l-3.2,1.2c-0.1-1-0.4-2.3-1.6-2.3c-2.2,0-2.4,4.1-2.4,5.6c0,1.6,0,5.6,2.4,5.6
		c1.8,0,2-2.2,2-3.6l-2.1,0l0-2.9L179.8,81.1z"/>
	<path d="M188.2,90.3l-0.6-2.8l-3.3,0l-0.6,2.8l-3.3,0l4-16.5l3.4,0l3.8,16.6L188.2,90.3z M187.2,85c-0.3-1.6-0.7-3.2-0.9-4.8
		c-0.1-0.7-0.2-1.5-0.3-2.2c-0.2,2.3-0.7,4.6-1.1,6.9L187.2,85z"/>
	<path d="M203.9,90.4l-0.7-11.9c-0.1,1.3-0.3,2.6-0.5,3.8l-1.5,8.1l-2.5,0l-1.5-7.5c-0.2-0.8-0.3-1.6-0.4-2.5l-0.2-1.9l-0.6,11.9
		l-3.5,0l1.6-16.5l4.3,0l1.5,9.8l1.4-9.8l4.4,0l1.6,16.6L203.9,90.4z"/>
	<path d="M209.1,90.5l0.1-16.5l6.6,0l0,3.1l-3.3,0l0,3.6l2.9,0l0,3.1l-2.9,0l0,3.7l3.3,0l0,3L209.1,90.5z"/>
	<path d="M224.1,90.6l-2.8-7.6l-0.1,7.6l-3.3,0L218,74l3.5,0c1.2,0,2.6,0.1,3.6,0.8c1.3,0.9,1.9,2.5,1.9,4c0,1.9-0.8,3.2-2.4,4.2
		l2.8,7.5L224.1,90.6z M221.2,81.1c0.2,0,0.4,0,0.5,0c1.4,0,2.1-1,2.1-2.3c0-1.3-0.6-2.3-2-2.3l-0.6,0L221.2,81.1z"/>
</g>
<g>
	<path d="M74.7,89.8l-4.1-10c0.1,0.6,0.2,1.3,0.2,1.9v8.1h-3.3V73.3h3.1l4.1,10c-0.1-0.7-0.2-1.5-0.2-2.2v-7.8h3.3v16.5H74.7z"/>
	<path d="M80.3,89.8V73.3h6.6v3.1h-3.3v3.6h2.9V83h-2.9v3.7h3.3v3.1H80.3z"/>
	<path d="M101.5,89.8h-2.9c-0.5-2.3-1-4.6-1.6-6.9c-0.4-1.6-0.5-3.2-0.6-4.9c-0.1,1.8-0.4,3.5-0.8,5.3l-1.6,6.5h-2.9l-3.3-16.5h3.3
		l1.3,7.3c0.2,1.4,0.4,2.8,0.4,4.2c0.1-1.3,0.3-2.7,0.6-4l1.5-7.4h2.6l1.7,8.3c0.2,1,0.4,2.1,0.5,3.1c0-1.6,0.1-3.2,0.4-4.8l1.2-6.6
		h3.4L101.5,89.8z"/>
	<path d="M113.1,77c-0.7-0.6-1.4-1.1-2.4-1.1c-1,0-1.6,0.6-1.6,1.6c0,2.9,5,2.8,5,7.4c0,2.9-1.7,5.1-4.7,5.1c-1,0-2-0.3-2.9-0.8
		v-3.1c0.7,0.5,1.5,0.9,2.4,0.9c1.1,0,1.9-0.7,1.9-1.8c0-0.3,0-0.6-0.2-0.8c-0.3-0.6-1.2-1.2-1.8-1.5c-1.9-1.3-3.1-2.5-3.1-4.9
		c0-2.6,1.5-4.9,4.3-4.9c1.1,0,1.9,0.2,2.9,0.8V77z"/>
</g>
</svg>
